<svg width="78" height="78" viewBox="0 0 78 78" fill="none" xmlns="http://www.w3.org/2000/svg">
<path d="M72.3715 30.2884C70.4526 31.0562 60.6316 35.01 58.8865 35.702L39.4516 43.5174C39.162 43.633 38.839 43.633 38.5494 43.5174C35.4897 42.2889 18.239 35.3597 15.5542 34.2755C15.409 35.8763 14.3318 46.6922 14.152 48.5651C14.8047 48.8406 15.3593 49.3064 15.7434 49.9017C16.1275 50.497 16.3235 51.1942 16.3056 51.9025C16.2877 52.6108 16.0569 53.2972 15.6432 53.8724C15.2295 54.4476 14.6521 54.8848 13.9864 55.1271L16.6896 61.2884C16.8121 61.5834 16.814 61.9146 16.6949 62.211C16.5758 62.5073 16.3453 62.7451 16.0528 62.8733C15.7602 63.0015 15.4291 63.0098 15.1305 62.8965C14.8319 62.7832 14.5897 62.5572 14.4559 62.2673L13.0297 59.0167L12.8603 59.8109C12.7888 60.123 12.5974 60.3944 12.3274 60.5665C12.0574 60.7386 11.7305 60.7976 11.4173 60.7307C11.1042 60.6637 10.83 60.4763 10.654 60.2088C10.4779 59.9414 10.4142 59.6154 10.4765 59.3013L11.3916 55.0123C10.7572 54.7181 10.2249 54.2415 9.86262 53.6433C9.50038 53.0452 9.32466 52.3526 9.3579 51.6541C9.39115 50.9556 9.63185 50.2828 10.0493 49.7218C10.4667 49.1607 11.0418 48.7368 11.7013 48.5042L13.2864 32.4223C13.3402 32.114 13.4932 31.8317 13.722 31.6183C13.9509 31.4048 14.2431 31.2718 14.5544 31.2396C16.5273 30.6072 35.895 24.2444 38.4394 23.4242C38.6825 23.2597 38.8584 23.0133 38.935 22.73C39.0117 22.4466 38.9839 22.1452 38.8568 21.8806C38.7297 21.616 38.5117 21.4059 38.2426 21.2887C37.9736 21.1714 37.6713 21.1547 37.391 21.2417L12.8963 29.2765C12.6801 29.3442 12.4875 29.4718 12.3408 29.6444C12.194 29.817 12.0992 30.0276 12.0671 30.2519C12.055 30.2763 11.5673 32.6782 11.5673 32.6782L5.62953 30.2885C5.40601 30.1949 5.21513 30.0373 5.08088 29.8356C4.94663 29.6338 4.87501 29.3969 4.875 29.1546C4.87499 28.9123 4.94661 28.6753 5.08084 28.4736C5.21508 28.2718 5.40595 28.1143 5.62947 28.0207L38.5494 15.0966C38.8359 14.9869 39.1529 14.9869 39.4394 15.0966L72.3715 28.0207C72.5948 28.1145 72.7854 28.2721 72.9195 28.4738C73.0535 28.6755 73.125 28.9123 73.125 29.1545C73.125 29.3967 73.0535 29.6335 72.9195 29.8353C72.7854 30.037 72.5948 30.1946 72.3715 30.2884ZM40.3661 45.7852C39.4919 46.1265 38.5213 46.1265 37.6471 45.7852C36.2932 45.2388 17.9918 37.9 17.3221 37.6162V50.1623C17.3204 50.4476 17.4199 50.7243 17.6029 50.9431C17.786 51.1619 18.0408 51.3086 18.3219 51.3572C18.4561 51.3938 31.9045 53.9054 38.1227 60.3918C38.3476 60.626 38.6562 60.7613 38.9808 60.7682C39.3054 60.775 39.6194 60.6528 39.854 60.4284C45.49 55.3689 52.6299 52.2979 60.179 51.6863C60.4897 51.6681 60.7816 51.5316 60.9948 51.3048C61.2079 51.0781 61.3261 50.7782 61.3251 50.467V37.3601C60.815 37.575 41.6406 45.2746 40.3661 45.7852Z" fill="url(#paint0_linear_53_5812)"/>
<defs>
<linearGradient id="paint0_linear_53_5812" x1="4.87505" y1="39" x2="73.1251" y2="39" gradientUnits="userSpaceOnUse">
<stop stop-color="#00744B"/>
<stop offset="1" stop-color="#6DD2CF"/>
</linearGradient>
</defs>
</svg>
