<svg width="80" height="80" viewBox="0 0 80 80" fill="none" xmlns="http://www.w3.org/2000/svg">
<g clip-path="url(#clip0_104_2746)">
<path d="M66.5076 76.3909V3.6091C66.5076 1.61584 64.8917 0 62.8985 0H17.1018C15.1085 0 13.4927 1.61584 13.4927 3.6091V76.3907C13.4927 78.384 15.1085 79.9998 17.1018 79.9998H62.8985C64.8917 80 66.5076 78.3842 66.5076 76.3909Z" fill="url(#paint0_linear_104_2746)"/>
<path d="M61.2894 2.30762H18.7109C17.4149 2.30762 16.3643 3.35828 16.3643 4.65428V75.3461C16.3643 76.6421 17.4149 77.6927 18.7109 77.6927H61.2894C62.5854 77.6927 63.6361 76.6421 63.6361 75.3461V4.65428C63.6361 3.35828 62.5854 2.30762 61.2894 2.30762Z" fill="url(#paint1_linear_104_2746)"/>
<path d="M66.5078 27.1372H57.6474L49.4644 35.3203L66.5078 52.3637V27.1372Z" fill="url(#paint2_linear_104_2746)"/>
<path d="M66.5076 76.391V44.233L27.8171 5.54248H13.4927V76.3908C13.4927 78.384 15.1085 79.9999 17.1018 79.9999H62.8985C64.8917 80 66.5076 78.3842 66.5076 76.391Z" fill="url(#paint3_linear_104_2746)"/>
<path d="M13.4927 43.5034V76.3909C13.4927 78.3842 15.1085 80 17.1018 80H62.8985C64.8917 80 66.5076 78.3842 66.5076 76.3909V43.5034H13.4927Z" fill="url(#paint4_linear_104_2746)"/>
<path d="M60.8722 7.14502V69.0195C60.8722 70.1926 59.9213 71.1435 58.7483 71.1435H21.2534C20.0796 71.1435 19.1279 70.1918 19.1279 69.018V7.14345C19.1279 5.97043 20.0788 5.01953 21.2519 5.01953H31.0064C31.7571 5.01953 32.3656 5.628 32.3656 6.37875C32.3656 7.12949 32.974 7.73796 33.7248 7.73796H46.2754C47.0261 7.73796 47.6346 7.12949 47.6346 6.37875C47.6346 5.628 48.2431 5.01953 48.9938 5.01953H58.7468C59.9206 5.01953 60.8722 5.97122 60.8722 7.14502Z" fill="url(#paint5_linear_104_2746)"/>
<path d="M27.817 5.54248H19.8599C19.4125 5.93197 19.1284 6.50421 19.1284 7.14389V69.0197C19.1284 70.1928 20.0795 71.1439 21.2527 71.1439H58.7472C59.9204 71.1439 60.8715 70.1928 60.8715 69.0197V38.5971L27.817 5.54248Z" fill="url(#paint6_linear_104_2746)"/>
<path d="M60.8719 27.1372H57.6474L49.4644 35.3203L60.8719 46.7278V27.1372Z" fill="url(#paint7_linear_104_2746)"/>
<path d="M30.9543 38.1699V45.804H19.1284V69.0196C19.1284 70.1928 20.0795 71.1439 21.2527 71.1439H58.7472C59.9204 71.1439 60.8715 70.1928 60.8715 69.0196V68.0873L30.9543 38.1699Z" fill="url(#paint8_linear_104_2746)"/>
<path d="M68.3487 2.30762H56.9067C50.4718 2.30762 45.2554 7.52409 45.2554 13.9589V19.6799C45.2554 23.0736 46.7075 26.1275 49.0229 28.2569V34.3528C49.0229 35.4922 50.4006 36.0629 51.2064 35.2573L55.2516 31.2121C55.7925 31.2891 56.3446 31.3311 56.9068 31.3311H68.3489C74.7837 31.3311 80.0002 26.1147 80.0002 19.6799V13.9591C80 7.52409 74.7835 2.30762 68.3487 2.30762Z" fill="url(#paint9_linear_104_2746)"/>
<path d="M66.5746 19.8892L55.2515 31.2123C55.7925 31.2893 56.3446 31.3312 56.907 31.3312H68.349C74.7137 31.3312 79.883 26.227 79.9952 19.8892H66.5746Z" fill="url(#paint10_linear_104_2746)"/>
<path d="M31.5264 45.1943V39.0985C31.5264 37.959 30.1487 37.3884 29.3429 38.194L25.2977 42.2392C24.7568 42.1622 24.2047 42.1201 23.6425 42.1201H12.2006C5.76579 42.1201 0.549316 47.3366 0.549316 53.7714V59.4924C0.549316 65.9272 5.76579 71.1437 12.2006 71.1437H23.6426C30.0775 71.1437 35.2939 65.9272 35.2939 59.4924V53.7714C35.2939 50.3775 33.8419 47.3237 31.5264 45.1943Z" fill="url(#paint11_linear_104_2746)"/>
<path d="M10.3352 2.30762H20.4847C26.1926 2.30762 30.8199 6.93491 30.8199 12.6428V17.7177C30.8199 20.7282 29.5319 23.437 27.478 25.326V30.7332C27.478 31.744 26.2558 32.2502 25.5412 31.5354L21.9529 27.9471C21.4731 28.0154 20.9834 28.0529 20.4847 28.0529H10.3352C4.62729 28.0529 0 23.4257 0 17.7177V12.6428C0 6.93491 4.62729 2.30762 10.3352 2.30762Z" fill="url(#paint12_linear_104_2746)"/>
<path d="M11.9092 17.9033L21.9534 27.9476C21.4736 28.0158 20.9837 28.053 20.4849 28.053H10.3354C4.68959 28.053 0.104334 23.5254 0.00488281 17.9033H11.9092Z" fill="url(#paint13_linear_104_2746)"/>
<path d="M16.0245 15.0356H8.39454C7.68928 15.0356 7.11768 15.6073 7.11768 16.3125C7.11768 17.0178 7.68928 17.5894 8.39454 17.5894H16.0245C16.7298 17.5894 17.3014 17.0176 17.3014 16.3125C17.3014 15.6074 16.7296 15.0356 16.0245 15.0356Z" fill="white"/>
<path d="M22.4259 10.748H14.7959C14.0907 10.748 13.519 11.3197 13.519 12.0249C13.519 12.7302 14.0908 13.3018 14.7959 13.3018H22.4259C23.1311 13.3018 23.7027 12.73 23.7027 12.0249C23.7027 11.3197 23.1311 10.748 22.4259 10.748Z" fill="white"/>
<path d="M10.8733 10.748H8.39454C7.68928 10.748 7.11768 11.3197 7.11768 12.0249C7.11768 12.7302 7.68944 13.3018 8.39454 13.3018H10.8734C11.5787 13.3018 12.1503 12.73 12.1503 12.0249C12.1503 11.3197 11.5785 10.748 10.8733 10.748Z" fill="white"/>
<path d="M69.6649 71.144H59.5154C53.8075 71.144 49.1802 66.5167 49.1802 60.8087V55.7339C49.1802 52.7234 50.4682 50.0145 52.5221 48.1256V42.7184C52.5221 41.7076 53.7443 41.2014 54.4589 41.9162L58.0472 45.5044C58.527 45.4362 59.0167 45.3987 59.5154 45.3987H69.6649C75.3728 45.3987 80.0001 50.026 80.0001 55.7339V60.8087C80.0001 66.5168 75.3728 71.144 69.6649 71.144Z" fill="url(#paint14_linear_104_2746)"/>
<path d="M65.2042 59.3398H57.5742C56.869 59.3398 56.2974 59.9115 56.2974 60.6167C56.2974 61.322 56.869 61.8936 57.5742 61.8936H65.2042C65.9094 61.8936 66.481 61.3218 66.481 60.6167C66.4812 59.9116 65.9094 59.3398 65.2042 59.3398Z" fill="white"/>
<path d="M71.6056 55.0522H63.9756C63.2703 55.0522 62.6987 55.6239 62.6987 56.3291C62.6987 57.0344 63.2705 57.606 63.9756 57.606H71.6056C72.3108 57.606 72.8824 57.0342 72.8824 56.3291C72.8826 55.6239 72.3108 55.0522 71.6056 55.0522Z" fill="white"/>
<path d="M60.0531 55.0522H57.5742C56.869 55.0522 56.2974 55.6239 56.2974 56.3291C56.2974 57.0344 56.8691 57.606 57.5742 57.606H60.0531C60.7584 57.606 61.33 57.0342 61.33 56.3291C61.33 55.6239 60.7584 55.0522 60.0531 55.0522Z" fill="white"/>
<path d="M65.1906 10.748H51.1592C50.4539 10.748 49.8823 11.3198 49.8823 12.0249C49.8823 12.7302 50.4539 13.3018 51.1592 13.3018H65.1906C65.8958 13.3018 66.4674 12.7302 66.4674 12.0249C66.4674 11.3198 65.8957 10.748 65.1906 10.748Z" fill="white"/>
<path d="M60.066 16.6426C60.066 15.9373 59.4942 15.3657 58.7891 15.3657H51.1592C50.4539 15.3657 49.8823 15.9375 49.8823 16.6426C49.8823 17.3478 50.4539 17.9194 51.1592 17.9194H58.7891C59.4942 17.9196 60.066 17.3478 60.066 16.6426Z" fill="white"/>
<path d="M65.1905 19.6538H57.5606C56.8553 19.6538 56.2837 20.2256 56.2837 20.9307C56.2837 21.6359 56.8555 22.2075 57.5606 22.2075H65.1905C65.8958 22.2075 66.4674 21.6359 66.4674 20.9307C66.4674 20.2254 65.8958 19.6538 65.1905 19.6538Z" fill="white"/>
<path d="M53.6381 19.6538H51.1592C50.4539 19.6538 49.8823 20.2256 49.8823 20.9307C49.8823 21.6359 50.4541 22.2075 51.1592 22.2075H53.6381C54.3433 22.2075 54.915 21.6359 54.915 20.9307C54.9151 20.2254 54.3433 19.6538 53.6381 19.6538Z" fill="white"/>
<path d="M74.0961 15.3657H69.0898C68.3846 15.3657 67.813 15.9373 67.813 16.6426C67.813 17.3478 68.3848 17.9194 69.0898 17.9194H74.0961C74.8014 17.9194 75.373 17.3477 75.373 16.6426C75.3731 15.9373 74.8014 15.3657 74.0961 15.3657Z" fill="white"/>
<path d="M65.1674 17.9199C65.8726 17.9199 66.4442 17.3482 66.4442 16.6431C66.4442 15.9378 65.8726 15.3662 65.1674 15.3662H62.6885C61.9832 15.3662 61.4116 15.9378 61.4116 16.6431C61.4116 17.3483 61.9834 17.9199 62.6885 17.9199H65.1674Z" fill="white"/>
<path d="M20.4845 50.4341H6.45313C5.74788 50.4341 5.17627 51.0058 5.17627 51.7109C5.17627 52.4162 5.74788 52.9878 6.45313 52.9878H20.4845C21.1898 52.9878 21.7614 52.4162 21.7614 51.7109C21.7614 51.0058 21.1896 50.4341 20.4845 50.4341Z" fill="white"/>
<path d="M15.3601 56.3286C15.3601 55.6234 14.7883 55.0518 14.0833 55.0518H6.45313C5.74788 55.0518 5.17627 55.6235 5.17627 56.3286C5.17627 57.0339 5.74788 57.6055 6.45313 57.6055H14.0831C14.7883 57.6056 15.3601 57.0339 15.3601 56.3286Z" fill="white"/>
<path d="M20.4845 59.3398H12.8545C12.1492 59.3398 11.5776 59.9116 11.5776 60.6167C11.5776 61.322 12.1494 61.8936 12.8545 61.8936H20.4845C21.1897 61.8936 21.7613 61.322 21.7613 60.6167C21.7613 59.9115 21.1897 59.3398 20.4845 59.3398Z" fill="white"/>
<path d="M8.93203 59.3398H6.45313C5.74788 59.3398 5.17627 59.9116 5.17627 60.6167C5.17627 61.322 5.74803 61.8936 6.45313 61.8936H8.93203C9.63729 61.8936 10.2089 61.322 10.2089 60.6167C10.2091 59.9115 9.63729 59.3398 8.93203 59.3398Z" fill="white"/>
<path d="M29.3901 55.0518H24.3838C23.6785 55.0518 23.1069 55.6234 23.1069 56.3286C23.1069 57.0339 23.6787 57.6055 24.3838 57.6055H29.3901C30.0953 57.6055 30.6669 57.0337 30.6669 56.3286C30.6671 55.6234 30.0953 55.0518 29.3901 55.0518Z" fill="white"/>
<path d="M20.4613 57.606C21.1666 57.606 21.7382 57.0342 21.7382 56.3291C21.7382 55.6239 21.1666 55.0522 20.4613 55.0522H17.9824C17.2772 55.0522 16.7056 55.6239 16.7056 56.3291C16.7056 57.0344 17.2773 57.606 17.9824 57.606H20.4613Z" fill="white"/>
</g>
<defs>
<linearGradient id="paint0_linear_104_2746" x1="16.8585" y1="16.8584" x2="66.6671" y2="66.6668" gradientUnits="userSpaceOnUse">
<stop stop-color="#5A5A5A"/>
<stop offset="1" stop-color="#444444"/>
</linearGradient>
<linearGradient id="paint1_linear_104_2746" x1="66.593" y1="50.5644" x2="17.2237" y2="30.9519" gradientUnits="userSpaceOnUse">
<stop stop-color="#5A5A5A"/>
<stop offset="1" stop-color="#444444"/>
</linearGradient>
<linearGradient id="paint2_linear_104_2746" x1="57.9861" y1="38.9803" x2="57.9861" y2="31.2905" gradientUnits="userSpaceOnUse">
<stop stop-color="#433F43" stop-opacity="0"/>
<stop offset="1" stop-color="#1A1A1A"/>
</linearGradient>
<linearGradient id="paint3_linear_104_2746" x1="28.4583" y1="31.8063" x2="25.3211" y2="23.9632" gradientUnits="userSpaceOnUse">
<stop stop-color="#433F43" stop-opacity="0"/>
<stop offset="1" stop-color="#1A1A1A"/>
</linearGradient>
<linearGradient id="paint4_linear_104_2746" x1="40.0001" y1="67.0887" x2="40.0001" y2="79.1444" gradientUnits="userSpaceOnUse">
<stop stop-color="#433F43" stop-opacity="0"/>
<stop offset="1" stop-color="#1A1A1A"/>
</linearGradient>
<linearGradient id="paint5_linear_104_2746" x1="35.4293" y1="27.7442" x2="53.2796" y2="68.1136" gradientUnits="userSpaceOnUse">
<stop stop-color="#EAF9FA"/>
<stop offset="1" stop-color="#B3DAFE"/>
</linearGradient>
<linearGradient id="paint6_linear_104_2746" x1="32.4188" y1="43.6619" x2="-0.626875" y2="22.2239" gradientUnits="userSpaceOnUse">
<stop stop-color="#7BACDF" stop-opacity="0"/>
<stop offset="1" stop-color="#7BACDF"/>
</linearGradient>
<linearGradient id="paint7_linear_104_2746" x1="60.9751" y1="39.9733" x2="54.3084" y2="29.9341" gradientUnits="userSpaceOnUse">
<stop stop-color="#7BACDF" stop-opacity="0"/>
<stop offset="1" stop-color="#7BACDF"/>
</linearGradient>
<linearGradient id="paint8_linear_104_2746" x1="45.9325" y1="60.9925" x2="20.5207" y2="52.9403" gradientUnits="userSpaceOnUse">
<stop stop-color="#7BACDF" stop-opacity="0"/>
<stop offset="1" stop-color="#7BACDF"/>
</linearGradient>
<linearGradient id="paint9_linear_104_2746" x1="51.3115" y1="8.80974" x2="66.5297" y2="24.0279" gradientUnits="userSpaceOnUse">
<stop stop-color="#FEF0AE"/>
<stop offset="1" stop-color="#FBC56D"/>
</linearGradient>
<linearGradient id="paint10_linear_104_2746" x1="67.6231" y1="26.587" x2="67.6231" y2="32.3119" gradientUnits="userSpaceOnUse">
<stop stop-color="#DC8758" stop-opacity="0"/>
<stop offset="0.2153" stop-color="#DD8654" stop-opacity="0.215"/>
<stop offset="0.4291" stop-color="#E28448" stop-opacity="0.429"/>
<stop offset="0.6424" stop-color="#EA8034" stop-opacity="0.642"/>
<stop offset="0.8542" stop-color="#F47B18" stop-opacity="0.854"/>
<stop offset="1" stop-color="#FE7701"/>
</linearGradient>
<linearGradient id="paint11_linear_104_2746" x1="14.8285" y1="48.4302" x2="22.5148" y2="62.391" gradientUnits="userSpaceOnUse">
<stop stop-color="#FE860A"/>
<stop offset="0.2435" stop-color="#FB7C0E"/>
<stop offset="0.6648" stop-color="#F55F19"/>
<stop offset="1" stop-color="#EF4424"/>
</linearGradient>
<linearGradient id="paint12_linear_104_2746" x1="4.79294" y1="4.5633" x2="27.1757" y2="26.946" gradientUnits="userSpaceOnUse">
<stop stop-color="#62DBFB"/>
<stop offset="0.1912" stop-color="#57D5FA"/>
<stop offset="0.5232" stop-color="#3BC5F7"/>
<stop offset="0.954" stop-color="#0DABF2"/>
<stop offset="1" stop-color="#08A9F1"/>
</linearGradient>
<linearGradient id="paint13_linear_104_2746" x1="10.9792" y1="23.8445" x2="10.9792" y2="28.9226" gradientUnits="userSpaceOnUse">
<stop stop-color="#0593FC" stop-opacity="0"/>
<stop offset="0.6831" stop-color="#0389FC" stop-opacity="0.683"/>
<stop offset="1" stop-color="#0182FC"/>
</linearGradient>
<linearGradient id="paint14_linear_104_2746" x1="50.7181" y1="44.3993" x2="72.8988" y2="66.58" gradientUnits="userSpaceOnUse">
<stop stop-color="#AEFFD1"/>
<stop offset="0.1201" stop-color="#A3F9CB"/>
<stop offset="0.3288" stop-color="#87EAB9"/>
<stop offset="0.6012" stop-color="#59D19D"/>
<stop offset="0.9235" stop-color="#19AF77"/>
<stop offset="1" stop-color="#09A76D"/>
</linearGradient>
<clipPath id="clip0_104_2746">
<rect width="80" height="80" fill="white"/>
</clipPath>
</defs>
</svg>
