<svg width="65" height="66" viewBox="0 0 65 66" fill="none" xmlns="http://www.w3.org/2000/svg">
<g clip-path="url(#clip0_53_4294)">
<path d="M32.3626 8.84C22.0122 8.84 13.5918 17.2604 13.5918 27.6108C13.5918 45.7589 30.9029 60.9346 31.6405 61.5706C31.8481 61.7495 32.1065 61.84 32.3626 61.84C32.6188 61.84 32.8772 61.7495 33.0848 61.5706C33.8223 60.9324 51.1335 45.7567 51.1335 27.6108C51.1335 17.2604 42.7131 8.84 32.3626 8.84ZM42.3001 29.8192C42.3001 30.4287 41.8055 30.9233 41.196 30.9233H35.6751V36.4442C35.6751 37.0537 35.1805 37.5483 34.571 37.5483H30.1543C29.5448 37.5483 29.0501 37.0537 29.0501 36.4442V30.9233H23.5293C22.9198 30.9233 22.4251 30.4287 22.4251 29.8192V25.4025C22.4251 24.793 22.9198 24.2983 23.5293 24.2983H29.0501V18.7775C29.0501 18.168 29.5448 17.6733 30.1543 17.6733H34.571C35.1805 17.6733 35.6751 18.168 35.6751 18.7775V24.2983H41.196C41.8055 24.2983 42.3001 24.793 42.3001 25.4025V29.8192Z" fill="url(#paint0_linear_53_4294)"/>
</g>
<defs>
<linearGradient id="paint0_linear_53_4294" x1="32.3626" y1="8.84" x2="32.3626" y2="61.84" gradientUnits="userSpaceOnUse">
<stop stop-color="#00744B"/>
<stop offset="1" stop-color="#6DD2CF"/>
</linearGradient>
<clipPath id="clip0_53_4294">
<rect width="53" height="53" fill="white" transform="translate(5.86279 8.84)"/>
</clipPath>
</defs>
</svg>
