<svg width="40" height="40" viewBox="0 0 40 40" fill="none" xmlns="http://www.w3.org/2000/svg">
<path d="M19.6875 32.5H7.5C6.81091 32.5 6.25 31.9391 6.25 31.25V10C6.25 9.65454 5.97046 9.375 5.625 9.375C5.27954 9.375 5 9.65454 5 10V31.25C5 32.6288 6.12122 33.75 7.5 33.75H19.6875C20.5043 33.7345 20.514 32.5163 19.6875 32.5Z" fill="white"/>
<path d="M28.125 21.875C28.4705 21.875 28.75 21.5955 28.75 21.25V8.75001C28.7504 8.58738 28.6816 8.42172 28.5661 8.30731L22.9427 2.68391C22.8849 2.62593 22.8155 2.57993 22.7386 2.54811C22.6623 2.51656 22.5813 2.5 22.5 2.5H7.5C6.12122 2.5 5 3.62122 5 5V6.875C5 7.22046 5.27954 7.5 5.625 7.5C5.97046 7.5 6.25 7.22046 6.25 6.875V5C6.25 4.31091 6.81091 3.75 7.5 3.75H21.875V6.875C21.875 8.25378 22.9962 9.375 24.375 9.375H27.5V21.25C27.5 21.5955 27.7795 21.875 28.125 21.875ZM23.125 6.87501V4.63379L26.6162 8.12501H24.375C23.6859 8.12501 23.125 7.56409 23.125 6.87501Z" fill="white"/>
<path d="M21.8752 17.5H11.8752C11.0568 17.5126 11.0512 18.7362 11.8753 18.75H21.8752C22.6937 18.7374 22.6993 17.5138 21.8752 17.5Z" fill="white"/>
<path d="M21.8752 20.625H11.8752C11.0568 20.6376 11.0512 21.8612 11.8753 21.875H21.8752C22.6937 21.8624 22.6993 20.6388 21.8752 20.625Z" fill="white"/>
<path d="M17.3439 13.3355H15.0002C14.1802 13.3475 14.1777 14.5727 15.0002 14.5855C15.0002 14.5855 16.2502 14.5855 16.2502 14.5855V15C16.2502 15.3454 16.5297 15.625 16.8752 15.625C17.2206 15.625 17.5002 15.3454 17.5002 15V14.5698C20.0668 14.3204 19.9255 10.5811 17.3439 10.523H16.4064C15.9755 10.523 15.6252 10.1727 15.6252 9.7418C15.6252 9.31089 15.9755 8.96055 16.4064 8.96055H18.7502C19.5701 8.9486 19.5727 7.72341 18.7502 7.71055H17.5002V7.29612C17.4873 6.47688 16.2639 6.47267 16.2502 7.29615C16.2502 7.29612 16.2502 7.72634 16.2502 7.72634C13.6835 7.97565 13.8248 11.715 16.4065 11.773C16.4064 11.773 17.3439 11.773 17.3439 11.773C18.3701 11.7905 18.3708 13.3178 17.3439 13.3355Z" fill="white"/>
<path d="M34.3822 25.7617C34.1502 24.596 33.1193 23.75 31.9304 23.75H24.3193C23.1309 23.75 22.1001 24.596 21.8681 25.7617L21.2907 28.6591C21.1148 29.5061 21.5037 30.4019 22.1873 30.8606C22.1873 30.8606 22.1873 35.625 22.1873 35.625C22.1873 36.6589 23.0284 37.5 24.0623 37.5H32.1873C33.2213 37.5 34.0623 36.6589 34.0623 35.625V30.8524C34.7747 30.3832 35.1323 29.4787 34.9565 28.6469C34.9565 28.6469 34.3822 25.7617 34.3822 25.7617ZM24.3193 25H31.9304C32.5248 25 33.0406 25.423 33.1566 26.0059L33.4539 27.5H22.796L23.0937 26.0059C23.2097 25.423 23.7254 25 24.3193 25ZM33.7309 28.8922C33.9405 30.1721 32.0557 30.4191 31.9029 29.1668C31.897 29.0862 31.8662 28.8265 31.861 28.75C31.861 28.75 33.7026 28.75 33.7026 28.75L33.7309 28.8922ZM23.4251 30C22.7758 30.009 22.3492 29.3451 22.5469 28.75C22.5469 28.75 24.3892 28.75 24.3892 28.75C24.3856 28.8216 24.3524 29.0904 24.3468 29.1669C24.2979 29.6417 23.9018 30 23.4251 30ZM25.6468 28.75H27.4998C27.7224 30.4114 25.3521 30.4136 25.6468 28.75ZM28.7498 28.75H30.6028C30.9053 30.398 28.5234 30.4251 28.7498 28.75ZM28.7498 36.25H27.4998V34.375H28.7498V36.25ZM32.1873 36.25H29.9998V34.375C29.9998 33.6859 29.4389 33.125 28.7498 33.125H27.4998C26.8107 33.125 26.2498 33.6859 26.2498 34.375V36.25H24.0623C23.7175 36.25 23.4373 35.9698 23.4373 35.625V31.2489C24.0448 31.2455 24.5902 30.9899 24.9843 30.5824C25.7702 31.4554 27.3409 31.4627 28.1267 30.594C28.913 31.447 30.4642 31.4711 31.2659 30.5825C31.655 31.0171 32.2386 31.2417 32.8123 31.2488C32.8123 31.2488 32.8123 35.625 32.8123 35.625C32.8123 35.9698 32.5322 36.25 32.1873 36.25Z" fill="white"/>
</svg>
