<svg width="40" height="40" viewBox="0 0 40 40" fill="none" xmlns="http://www.w3.org/2000/svg">
<g clip-path="url(#clip0_53_6628)">
<path d="M25.8691 9.21997H25.8688C25.1526 8.50372 24.2001 8.10913 23.1869 8.10913C22.174 8.10913 21.2216 8.50372 20.505 9.21997L20 9.72504L19.4949 9.21997C18.7784 8.50342 17.8259 8.10913 16.813 8.10913C15.7998 8.10913 14.8474 8.50342 14.1311 9.21997C12.6523 10.6989 12.6523 13.1049 14.1311 14.5837L20 20.4529L25.8691 14.5837C27.3477 13.1049 27.3477 10.6989 25.8691 9.21997ZM24.2102 12.9251L20 17.135L15.7898 12.9251C15.2258 12.3608 15.2258 11.4429 15.7898 10.8789C16.0632 10.6055 16.4264 10.455 16.813 10.455C17.1994 10.455 17.5628 10.6055 17.836 10.8789L20 13.0429L22.164 10.8789C22.7279 10.3146 23.6462 10.3146 24.2099 10.8789C24.7741 11.4429 24.7741 12.3608 24.2102 12.9251Z" fill="white"/>
<path d="M10.4358 8.02643C10.6143 5.7196 8.95233 3.7149 6.65253 3.46283C4.35028 3.21075 2.2464 4.87335 1.96045 7.17163L0 21.5488L5.3241 30.5081V36.6498H18.5141V22.6477L9.9884 13.8034L10.4358 8.02643ZM16.1682 34.3039H7.67029V31.6449H16.1682V34.3039ZM16.1682 29.299H7.33459L2.4353 21.0544L4.28619 7.48169L4.28802 7.46551C4.41467 6.43066 5.36163 5.68115 6.39679 5.79498C7.43042 5.9082 8.17688 6.80878 8.09662 7.84546L7.60406 14.2084C7.12769 14.368 6.67877 14.6323 6.29395 15.0034C5.62195 15.6506 5.24261 16.521 5.22522 17.4536C5.20813 18.3865 5.55511 19.2703 6.20239 19.942L10.405 24.3033L12.0944 22.6755L7.89185 18.3142C7.67914 18.0936 7.56531 17.8036 7.5708 17.4973C7.5766 17.1909 7.70111 16.9052 7.92175 16.6928C8.37708 16.254 9.10431 16.2674 9.54315 16.7227L13.8367 21.1761L16.1679 23.5947V29.299H16.1682Z" fill="white"/>
<path d="M39.9999 21.5487L38.0395 7.17222C37.7535 4.87395 35.6509 3.21043 33.3474 3.46281C31.0473 3.71489 29.3856 5.71959 29.5641 8.02672L30.0115 13.8034L21.4858 22.6477V36.6498H34.6758V30.5081L39.9999 21.5487ZM32.3297 34.3039H23.8317V31.6449H32.3297V34.3039ZM23.8317 23.5943L30.4565 16.7227C30.8953 16.2671 31.6229 16.2536 32.0782 16.6925C32.2988 16.9052 32.4233 17.1908 32.4288 17.4972C32.4346 17.8033 32.3208 18.0935 32.1081 18.3142L27.9055 22.6755L29.595 24.3033L33.7975 19.942C34.4448 19.27 34.7918 18.3865 34.7747 17.4536C34.7573 16.5207 34.3777 15.6506 33.706 15.0033C33.3209 14.6322 32.8719 14.3677 32.3959 14.2084L31.903 7.84544C31.8228 6.80907 32.5695 5.90819 33.6031 5.79497C34.6386 5.68175 35.5853 6.43065 35.7116 7.4655L37.5646 21.0544L32.665 29.299H23.8317V23.5943Z" fill="white"/>
</g>
<defs>
<clipPath id="clip0_53_6628">
<rect width="40" height="40" fill="white"/>
</clipPath>
</defs>
</svg>
