<svg width="47" height="47" viewBox="0 0 47 47" fill="none" xmlns="http://www.w3.org/2000/svg">
<path d="M20.5625 11.75H17.625V5.875H20.5625V8.8125H26.4375V11.75H23.5V14.6875H20.5625V11.75ZM26.4375 47V44.0625H23.5V47H26.4375ZM23.5 2.9375V0H17.625V2.9375H20.5625V5.875H23.5V2.9375ZM47 0V17.625H44.0625V14.6875H32.3125V0H47ZM44.0625 11.75V2.9375H35.25V11.75H44.0625ZM2.9375 17.625H0V20.5625H5.875V17.625H2.9375ZM2.9375 26.4375H5.875V29.375H8.8125V20.5625H5.875V23.5H0V29.375H2.9375V26.4375ZM17.625 29.375V35.25H20.5625V29.375H17.625ZM29.375 0H26.4375V8.8125H29.375V0ZM29.375 14.6875V11.75H26.4375V14.6875H29.375ZM38.1875 8.8125H41.125V5.875H38.1875V8.8125ZM8.8125 5.875H5.875V8.8125H8.8125V5.875ZM14.6875 0V14.6875H0V0H14.6875ZM11.75 2.9375H2.9375V11.75H11.75V2.9375ZM38.1875 17.625V20.5625H35.25V17.625H29.375V20.5625H26.4375V17.625H17.625V14.6875H14.6875V17.625H11.75V20.5625H14.6875V26.4375H17.625V23.5H20.5625V29.375H23.5V23.5H32.3125V26.4375H26.4375V29.375H32.3125V32.3125H35.25V23.5H38.1875V26.4375H41.125V32.3125H44.0625V29.375H47V26.4375H44.0625V23.5H41.125V20.5625H44.0625V17.625H38.1875ZM5.875 41.125H8.8125V38.1875H5.875V41.125ZM0 32.3125H14.6875V47H0V32.3125ZM2.9375 44.0625H11.75V35.25H2.9375V44.0625ZM38.1875 35.25V32.3125H35.25V35.25H38.1875ZM38.1875 38.1875H35.25V41.125H32.3125V38.1875H29.375V35.25H32.3125V32.3125H26.4375V29.375H23.5V35.25H20.5625V38.1875H17.625V47H20.5625V44.0625H23.5V41.125H29.375V47H32.3125V44.0625H35.25V47H41.125V44.0625H44.0625V41.125H38.1875V38.1875ZM11.75 29.375H14.6875V26.4375H11.75V29.375ZM41.125 35.25V38.1875H44.0625V41.125H47V32.3125H44.0625V35.25H41.125ZM47 47V44.0625H44.0625V47H47ZM47 23.5V20.5625H44.0625V23.5H47Z" fill="#0071BC"/>
<circle cx="23.5" cy="23.5" r="14.9545" fill="#0071BC"/>
<g clip-path="url(#clip0_151_3905)">
<path d="M30.9775 23.5098L24.7627 16.6816V20.7555H23.4413C19.3442 20.7555 16.0229 24.0832 16.0229 28.1884V30.3473L16.6098 29.7029C18.6052 27.5123 21.4286 26.2642 24.3887 26.2642H24.7627V30.338L30.9775 23.5098Z" fill="white"/>
</g>
<defs>
<clipPath id="clip0_151_3905">
<rect width="14.9545" height="14.9545" fill="white" transform="translate(16.0229 16.0229)"/>
</clipPath>
</defs>
</svg>
