<svg width="40" height="40" viewBox="0 0 40 40" fill="none" xmlns="http://www.w3.org/2000/svg">
<g clip-path="url(#clip0_95_1836)">
<path d="M20.8592 34.2188H5.07715C4.64574 34.2188 4.2959 34.5685 4.2959 35C4.2959 35.4315 4.64574 35.7812 5.07715 35.7812H20.8592C21.2906 35.7812 21.6404 35.4315 21.6404 35C21.6404 34.5685 21.2906 34.2188 20.8592 34.2188Z" fill="white"/>
<path d="M5.62941 30.0727C5.48418 29.9273 5.28262 29.8438 5.07715 29.8438C4.8716 29.8438 4.67004 29.9273 4.5248 30.0727C4.37949 30.218 4.2959 30.4195 4.2959 30.625C4.2959 30.8305 4.37941 31.032 4.5248 31.1773C4.67004 31.3227 4.8716 31.4062 5.07715 31.4062C5.28262 31.4062 5.48418 31.3227 5.62941 31.1773C5.77473 31.032 5.8584 30.8305 5.8584 30.625C5.8584 30.4195 5.7748 30.218 5.62941 30.0727Z" fill="white"/>
<path d="M20.8594 29.8438H8.51562C8.08422 29.8438 7.73438 30.1935 7.73438 30.625C7.73438 31.0565 8.08422 31.4062 8.51562 31.4062H20.8594C21.2908 31.4062 21.6406 31.0565 21.6406 30.625C21.6406 30.1935 21.2908 29.8438 20.8594 29.8438Z" fill="white"/>
<path d="M20.8594 25.4688H5C4.56859 25.4688 4.21875 25.8185 4.21875 26.25C4.21875 26.6815 4.56859 27.0312 5 27.0312H20.8594C21.2908 27.0312 21.6406 26.6815 21.6406 26.25C21.6406 25.8185 21.2908 25.4688 20.8594 25.4688Z" fill="white"/>
<path d="M5.62941 21.3227C5.48418 21.1773 5.28262 21.0938 5.07715 21.0938C4.8716 21.0938 4.67004 21.1773 4.5248 21.3227C4.37949 21.468 4.2959 21.6695 4.2959 21.875C4.2959 22.0805 4.37941 22.282 4.5248 22.4273C4.67004 22.5727 4.8716 22.6562 5.07715 22.6562C5.28262 22.6562 5.48418 22.5727 5.62941 22.4273C5.77473 22.282 5.8584 22.0813 5.8584 21.875C5.8584 21.6695 5.7748 21.468 5.62941 21.3227Z" fill="white"/>
<path d="M20.8594 21.0938H8.51562C8.08422 21.0938 7.73438 21.4435 7.73438 21.875C7.73438 22.3065 8.08422 22.6562 8.51562 22.6562H20.8594C21.2908 22.6562 21.6406 22.3065 21.6406 21.875C21.6406 21.4435 21.2908 21.0938 20.8594 21.0938Z" fill="white"/>
<path d="M9.17602 9.36029H5C4.56859 9.36029 4.21875 9.71006 4.21875 10.1415C4.21875 10.573 4.56859 10.9228 5 10.9228H6.3068V16.7661C6.3068 17.1976 6.65664 17.5474 7.08805 17.5474C7.51945 17.5474 7.8693 17.1976 7.8693 16.7661V10.9228H9.17609C9.6075 10.9228 9.95734 10.573 9.95734 10.1415C9.95734 9.71006 9.6075 9.36029 9.17602 9.36029Z" fill="white"/>
<path d="M17.0141 16.4612L14.2217 9.88638C14.0992 9.59787 13.8161 9.41052 13.5026 9.41052C13.1892 9.41052 12.9061 9.59787 12.7836 9.88638L9.99108 16.4612C9.82241 16.8584 10.0076 17.3171 10.4047 17.4857C10.5044 17.528 10.608 17.548 10.7097 17.548C11.0138 17.548 11.3029 17.3694 11.4292 17.072L11.9287 15.8962H15.0766L15.576 17.072C15.7447 17.4692 16.2033 17.6544 16.6005 17.4857C16.9976 17.317 17.1828 16.8583 17.0141 16.4612ZM12.5922 14.3338L13.5026 12.1903L14.413 14.3338H12.5922Z" fill="white"/>
<path d="M21.5777 13.4553L23.4145 10.5591C23.6455 10.1948 23.5375 9.71202 23.1731 9.48093C22.8086 9.24976 22.3259 9.35796 22.0949 9.72226L20.6525 11.9966L19.2102 9.72226C18.9791 9.35796 18.4965 9.24984 18.132 9.48093C17.7676 9.71202 17.6596 10.1948 17.8906 10.5591L19.7274 13.4554L17.8906 16.3516C17.6596 16.7159 17.7676 17.1987 18.132 17.4298C18.2618 17.5121 18.4066 17.5514 18.5496 17.5514C18.8083 17.5514 19.0614 17.423 19.2102 17.1884L20.6525 14.9141L22.0949 17.1884C22.2437 17.423 22.4968 17.5514 22.7554 17.5514C22.8985 17.5514 23.0433 17.5121 23.1731 17.4298C23.5375 17.1987 23.6455 16.7159 23.4145 16.3516L21.5777 13.4553Z" fill="white"/>
<path d="M37.8906 17.8077H25.5469C24.3838 17.8077 23.4375 18.7539 23.4375 19.917V37.8906C23.4375 38.0798 23.4629 38.263 23.5098 38.4375H2.34375C1.91297 38.4375 1.5625 38.087 1.5625 37.6562V2.34375C1.5625 1.91297 1.91297 1.5625 2.34375 1.5625H24.4531V6.31773C24.4531 7.62125 25.5136 8.6818 26.8172 8.6818H31.5625V15.115C31.5625 15.5465 31.9123 15.8962 32.3438 15.8962C32.7752 15.8962 33.125 15.5465 33.125 15.115V7.90055C33.1244 7.90062 33.1238 7.90062 33.1231 7.9007C33.1231 7.69742 33.0455 7.49758 32.8962 7.34812L25.7868 0.23875C25.6366 0.0885937 25.4355 0.0111719 25.2312 0.0119531C25.2324 0.00773437 25.2331 0.00421875 25.2344 0H2.34375C1.05141 0 0 1.05141 0 2.34375V37.6562C0 38.9486 1.05141 40 2.34375 40H37.8906C39.0537 40 40 39.0537 40 37.8906V19.917C40 18.7539 39.0537 17.8077 37.8906 17.8077ZM26.0156 2.67727L30.4576 7.1193H26.8172C26.3752 7.1193 26.0156 6.75969 26.0156 6.31773V2.67727ZM38.4375 37.8906C38.4375 38.1922 38.1921 38.4375 37.8906 38.4375H25.5469C25.2454 38.4375 25 38.1922 25 37.8906V19.917C25 19.6155 25.2454 19.3702 25.5469 19.3702H37.8906C38.1921 19.3702 38.4375 19.6155 38.4375 19.917V37.8906Z" fill="white"/>
<path d="M36.0938 20.9327H27.3438C26.9123 20.9327 26.5625 21.2824 26.5625 21.7139V24.8389C26.5625 25.2704 26.9123 25.6202 27.3438 25.6202H36.0938C36.5252 25.6202 36.875 25.2704 36.875 24.8389V21.7139C36.875 21.2824 36.5252 20.9327 36.0938 20.9327ZM35.3125 24.0577H28.125V22.4952H35.3125V24.0577Z" fill="white"/>
<path d="M28.2812 27.8077H27.3438C26.9123 27.8077 26.5625 28.1574 26.5625 28.5889C26.5625 29.0204 26.9123 29.3702 27.3438 29.3702H28.2812C28.7127 29.3702 29.0625 29.0204 29.0625 28.5889C29.0625 28.1574 28.7127 27.8077 28.2812 27.8077Z" fill="white"/>
<path d="M32.1875 27.8077H31.25C30.8186 27.8077 30.4688 28.1574 30.4688 28.5889C30.4688 29.0204 30.8186 29.3702 31.25 29.3702H32.1875C32.6189 29.3702 32.9688 29.0204 32.9688 28.5889C32.9688 28.1574 32.6189 27.8077 32.1875 27.8077Z" fill="white"/>
<path d="M36.0938 27.8077H35.1562C34.7248 27.8077 34.375 28.1574 34.375 28.5889C34.375 29.0204 34.7248 29.3702 35.1562 29.3702H36.0938C36.5252 29.3702 36.875 29.0204 36.875 28.5889C36.875 28.1574 36.5252 27.8077 36.0938 27.8077Z" fill="white"/>
<path d="M28.2812 31.5577H27.3438C26.9123 31.5577 26.5625 31.9074 26.5625 32.3389C26.5625 32.7704 26.9123 33.1202 27.3438 33.1202H28.2812C28.7127 33.1202 29.0625 32.7704 29.0625 32.3389C29.0625 31.9074 28.7127 31.5577 28.2812 31.5577Z" fill="white"/>
<path d="M32.1875 31.5577H31.25C30.8186 31.5577 30.4688 31.9074 30.4688 32.3389C30.4688 32.7704 30.8186 33.1202 31.25 33.1202H32.1875C32.6189 33.1202 32.9688 32.7704 32.9688 32.3389C32.9688 31.9074 32.6189 31.5577 32.1875 31.5577Z" fill="white"/>
<path d="M36.0938 31.5577H35.1562C34.7248 31.5577 34.375 31.9074 34.375 32.3389C34.375 32.7704 34.7248 33.1202 35.1562 33.1202H36.0938C36.5252 33.1202 36.875 32.7704 36.875 32.3389C36.875 31.9074 36.5252 31.5577 36.0938 31.5577Z" fill="white"/>
<path d="M28.2812 35.3077H27.3438C26.9123 35.3077 26.5625 35.6574 26.5625 36.0889C26.5625 36.5204 26.9123 36.8702 27.3438 36.8702H28.2812C28.7127 36.8702 29.0625 36.5204 29.0625 36.0889C29.0625 35.6574 28.7127 35.3077 28.2812 35.3077Z" fill="white"/>
<path d="M32.1875 35.3077H31.25C30.8186 35.3077 30.4688 35.6574 30.4688 36.0889C30.4688 36.5204 30.8186 36.8702 31.25 36.8702H32.1875C32.6189 36.8702 32.9688 36.5204 32.9688 36.0889C32.9688 35.6574 32.6189 35.3077 32.1875 35.3077Z" fill="white"/>
<path d="M36.0938 35.3077H35.1562C34.7248 35.3077 34.375 35.6574 34.375 36.0889C34.375 36.5204 34.7248 36.8702 35.1562 36.8702H36.0938C36.5252 36.8702 36.875 36.5204 36.875 36.0889C36.875 35.6574 36.5252 35.3077 36.0938 35.3077Z" fill="white"/>
</g>
<defs>
<clipPath id="clip0_95_1836">
<rect width="40" height="40" fill="white"/>
</clipPath>
</defs>
</svg>
