<svg width="40" height="40" viewBox="0 0 40 40" fill="none" xmlns="http://www.w3.org/2000/svg">
<path d="M23.3335 10.8334V7.50002H16.6668V10.8334H23.3335ZM6.66683 14.1667V32.5H33.3335V14.1667H6.66683ZM33.3335 10.8334C35.1835 10.8334 36.6668 12.3167 36.6668 14.1667V32.5C36.6668 34.35 35.1835 35.8334 33.3335 35.8334H6.66683C4.81683 35.8334 3.3335 34.35 3.3335 32.5L3.35016 14.1667C3.35016 12.3167 4.81683 10.8334 6.66683 10.8334H13.3335V7.50002C13.3335 5.65002 14.8168 4.16669 16.6668 4.16669H23.3335C25.1835 4.16669 26.6668 5.65002 26.6668 7.50002V10.8334H33.3335Z" fill="white"/>
</svg>
