<svg width="80" height="80" viewBox="0 0 80 80" fill="none" xmlns="http://www.w3.org/2000/svg">
<path d="M77.6471 17.5508V69.388C77.6471 72.0429 75.4988 74.1916 72.8436 74.1916H7.1566C4.50137 74.1916 2.35303 72.0429 2.35303 69.388V17.5508H77.6471Z" fill="#E9E9FF"/>
<path d="M77.6471 17.5462V10.6257C77.6471 7.97078 75.4988 5.82211 72.8436 5.82211L7.1566 5.80908C4.50137 5.80908 2.35303 7.97078 2.35303 10.612V17.5462H77.6471Z" fill="#ED524E"/>
<path d="M19.4567 11.6776C19.4567 12.8348 18.5305 13.761 17.3733 13.761C16.2154 13.761 15.2896 12.8348 15.2896 11.6776C15.2896 10.5197 16.2154 9.59424 17.3733 9.59424C18.5305 9.59424 19.4567 10.5197 19.4567 11.6776Z" fill="#E9E9FF"/>
<path d="M12.1064 11.6776C12.1064 12.8348 11.1661 13.761 10.023 13.761C8.86547 13.761 7.9248 12.8348 7.9248 11.6776C7.9248 10.5197 8.86547 9.59424 10.023 9.59424C11.1661 9.59424 12.1064 10.5197 12.1064 11.6776Z" fill="#E9E9FF"/>
<path d="M26.8209 11.6776C26.8209 12.8348 25.8806 13.761 24.723 13.761C23.58 13.761 22.6396 12.8348 22.6396 11.6776C22.6396 10.5197 23.58 9.59424 24.723 9.59424C25.8806 9.59424 26.8209 10.5197 26.8209 11.6776Z" fill="#E9E9FF"/>
<path d="M44.5152 10.1763C43.6914 10.1763 43.0137 10.8433 43.0137 11.6778C43.0137 12.5118 43.6914 13.1793 44.5152 13.1793H70.5636C71.3978 13.1793 72.0755 12.5118 72.0755 11.6778C72.0755 10.8433 71.3978 10.1763 70.5636 10.1763H44.5152Z" fill="#E9E9FF"/>
<path d="M43.5825 66.5825H43.6009C43.4258 66.6194 43.2504 66.6469 43.0845 66.6748C43.2504 66.6469 43.4165 66.61 43.5825 66.5825Z" fill="#5382FF"/>
<path d="M50.9322 43.9438C49.6505 44.11 48.258 43.9902 47.1607 44.6723C46.4876 45.0965 46.0171 45.7606 45.4362 46.2956C44.5325 47.1164 43.3614 47.5775 42.2087 47.9922C40.7332 48.5176 39.221 48.9697 37.6903 49.3479C36.3256 49.6892 34.887 50.0026 33.7712 50.8788C32.7752 51.6807 32.1298 52.8978 31.0876 53.6358C29.8705 54.4935 28.0722 54.7885 27.6206 56.1901C27.5098 56.522 27.5006 56.8538 27.556 57.1767C27.7773 58.4401 29.0497 59.6297 29.3726 60.9855C29.5846 61.9256 29.3449 62.8941 29.0774 63.8253C27.3716 62.7928 25.8314 61.5199 24.4944 60.0444C24.0702 59.5833 23.6551 59.0948 23.2771 58.5968C20.566 55.0834 18.98 50.6573 18.98 45.8714C18.98 42.0536 19.9944 38.4758 21.7741 35.396C23.1389 33.0352 24.9462 30.9694 27.0949 29.3003C27.7957 29.7893 28.6717 29.9181 29.4831 30.1855C30.3039 30.444 31.1522 30.951 31.3735 31.7718C31.6318 32.8047 30.8571 33.9758 31.3828 34.8885C31.8531 35.7094 33.015 35.7094 33.9556 35.5986C36.0396 35.3591 38.1329 35.1285 40.2354 34.8885C41.7015 34.7224 43.3614 34.6121 44.4679 35.5986C45.2795 36.3087 45.6024 37.4614 46.423 38.1714C47.1607 38.8261 48.2027 39.0107 49.1802 39.0846C50.1667 39.1674 51.1904 39.1674 52.0941 39.5362C53.0162 39.9049 53.8278 40.7717 53.7447 41.7677C53.6527 43.0406 52.2048 43.7781 50.9322 43.9438Z" fill="#FDC72E"/>
<path d="M60.9927 46.7291C60.8819 49.6522 60.1626 52.4187 58.9732 54.9176C57.47 58.0803 55.1924 60.8008 52.389 62.8477C51.9833 62.6635 51.5961 62.4605 51.2363 62.2394C50.6555 61.8981 50.1575 61.5199 49.7885 61.1326C48.5712 59.8696 46.8285 57.2415 48.2947 56.2545C49.9177 55.2031 52.2508 54.982 52.14 53.0364C52.0846 52.1233 51.6236 51.2381 51.6143 50.3069C51.6051 49.3848 52.4075 48.3239 53.2835 48.6193C53.6709 48.7481 53.9289 49.0989 54.2887 49.2925C55.0262 49.6891 55.9668 49.3109 56.6033 48.7576C57.2487 48.2136 57.7375 47.5036 58.4568 47.061C59.2128 46.5904 60.1259 46.526 60.9927 46.7291Z" fill="#FDC72E"/>
<path d="M61.0202 45.8713C61.0202 46.1572 61.0112 46.4427 61.0017 46.7291C60.135 46.526 59.2128 46.5904 58.4568 47.0609C57.7375 47.5035 57.2488 48.2136 56.6033 48.7575C55.9669 49.3109 55.0263 49.6891 54.2887 49.2924C53.929 49.0988 53.671 48.7481 53.2835 48.6193C52.4075 48.3239 51.6051 49.3848 51.6144 50.3069C51.6236 51.238 52.0847 52.1233 52.1401 53.0364C52.2508 54.982 49.9178 55.2031 48.2948 56.2544C46.8285 57.2414 48.5713 59.8696 49.7885 61.1326C50.1575 61.5199 50.6555 61.8981 51.2364 62.2394C51.5961 62.4605 51.9834 62.6635 52.3891 62.8477C52.1677 63.0048 51.9464 63.1615 51.7251 63.3088C51.5038 63.4659 51.2733 63.6131 51.0428 63.7518C50.8122 63.9085 50.5817 64.0373 50.3512 64.1665C50.1114 64.3047 49.8716 64.434 49.6319 64.5537C49.3921 64.683 49.1431 64.8027 48.9033 64.9135C48.3776 65.1625 47.8429 65.393 47.2988 65.5866C47.1144 65.6605 46.9208 65.7249 46.727 65.7897C46.0448 66.0293 45.3438 66.2229 44.6431 66.3796C44.3111 66.4534 43.979 66.5182 43.6472 66.5732C43.6195 66.5826 43.601 66.5916 43.5825 66.5826C43.2415 66.647 42.9094 66.7024 42.5683 66.7393C42.0796 66.8037 41.5908 66.8406 41.0928 66.8591C40.733 66.887 40.3735 66.896 40.0047 66.896C37.1552 66.896 34.4626 66.3246 31.9821 65.2823C30.9769 64.8766 30.0086 64.388 29.0772 63.8252C29.3447 62.8941 29.5845 61.9255 29.3724 60.9854C29.0496 59.6296 27.7771 58.44 27.5558 57.1766C27.5004 56.8537 27.5096 56.5219 27.6204 56.1901C28.072 54.7884 29.8704 54.4935 31.0875 53.6357C32.1296 52.8977 32.775 51.6807 33.771 50.8787C34.8868 50.0025 36.3254 49.6891 37.6901 49.3478C39.2208 48.9696 40.733 48.5175 42.2086 47.9921C43.3612 47.5774 44.5324 47.1163 45.4361 46.2955C46.0169 45.7606 46.4874 45.0964 47.1606 44.6723C48.2579 43.9901 49.6503 44.1099 50.932 43.9437C52.2047 43.778 53.6525 43.0405 53.7446 41.7676C53.8276 40.7716 53.016 39.9049 52.0939 39.5361C51.1902 39.1673 50.1665 39.1673 49.18 39.0845C48.2025 39.0106 47.1606 38.826 46.4228 38.1713C45.6022 37.4613 45.2794 36.3086 44.4678 35.5985C43.3612 34.612 41.7013 34.7223 40.2353 34.8885C38.1328 35.1285 36.0395 35.359 33.9554 35.5985C33.0148 35.7093 31.8529 35.7093 31.3826 34.8885C30.8569 33.9758 31.6316 32.8046 31.3734 31.7717C31.1521 30.9509 30.3038 30.4439 29.4829 30.1854C28.6716 29.918 27.7956 29.7892 27.0947 29.3002C27.6571 28.8486 28.2474 28.4335 28.8467 28.0557C32.0834 26.0268 35.9197 24.8462 40.0047 24.8462C40.5394 24.8462 41.1113 24.8647 41.6646 24.92C49.0602 25.4919 55.4137 29.918 58.6597 36.1978C60.1811 39.0935 61.0202 42.3854 61.0202 45.8713Z" fill="#70C1F9"/>
<path d="M61.0201 45.8711C61.0201 46.157 61.0111 46.4425 61.0017 46.7288H60.9927C61.0111 46.4425 61.0201 46.157 61.0201 45.8711Z" fill="#FFE386"/>
<path d="M29.4554 44.5157C28.9115 45.1244 28.1645 45.5026 27.5006 45.9912C25.4258 47.5496 24.3746 50.3619 24.9093 52.8978C25.0108 53.3589 25.1583 53.8109 25.2873 54.272C25.3796 54.5949 25.4719 54.9177 25.5273 55.2495C25.6747 56.0519 25.6286 56.9277 25.1491 57.5918C24.7065 58.2001 24.0241 58.477 23.2771 58.5968C20.566 55.0834 18.98 50.6573 18.98 45.8714C18.98 42.0536 19.9944 38.4758 21.7741 35.396C22.1798 36.0228 22.4657 36.7972 22.6316 37.5811C22.8622 38.6415 22.8806 39.7208 22.7147 40.5137C22.5303 41.3899 22.189 42.4224 22.7609 43.1234C23.1758 43.6489 23.9779 43.7322 24.6142 43.5197C25.2688 43.3171 25.7945 42.8745 26.3479 42.4688C26.8736 42.0905 27.4452 41.7218 28.0906 41.6205C28.7453 41.5097 29.4739 41.7218 29.8336 42.2657C30.2855 42.9573 29.9903 43.9069 29.4554 44.5157Z" fill="#70C1F9"/>
<path d="M61.0202 45.8713C61.0202 46.1572 61.0112 46.4427 61.0017 46.7291C60.135 46.526 59.2128 46.5904 58.4568 47.0609C57.7375 47.5035 57.2488 48.2136 56.6033 48.7575C55.9669 49.3109 55.0263 49.6891 54.2887 49.2924C53.929 49.0988 53.671 48.7481 53.2835 48.6193C52.4075 48.3239 51.6051 49.3848 51.6144 50.3069C51.6236 51.238 52.0847 52.1233 52.1401 53.0364C52.2508 54.982 49.9178 55.2031 48.2948 56.2544C46.8285 57.2414 48.5713 59.8696 49.7885 61.1326C50.1575 61.5199 50.6555 61.8981 51.2364 62.2394C51.5961 62.4605 51.9834 62.6635 52.3891 62.8477C52.1677 63.0048 51.9464 63.1615 51.7251 63.3088C51.5038 63.4659 51.2733 63.6131 51.0428 63.7518C50.8122 63.9085 50.5817 64.0373 50.3512 64.1665C50.1114 64.3047 49.8716 64.434 49.6319 64.5537C49.3921 64.683 49.1431 64.8027 48.9033 64.9135C48.3776 65.1625 47.8429 65.393 47.2988 65.5866C47.1144 65.6605 46.9208 65.7249 46.727 65.7897C46.0448 66.0293 45.3438 66.2229 44.6431 66.3796C44.3111 66.4534 43.979 66.5182 43.6472 66.5732C43.6195 66.5826 43.601 66.5916 43.5825 66.5826C43.2415 66.647 42.9094 66.7024 42.5683 66.7393C42.0796 66.8037 41.5908 66.8406 41.0928 66.8591C40.733 66.887 40.3735 66.896 40.0047 66.896C37.1552 66.896 34.4626 66.3246 31.9821 65.2823C30.9769 64.8766 30.0086 64.388 29.0772 63.8252C29.3447 62.8941 29.5845 61.9255 29.3724 60.9854C29.0496 59.6296 27.7771 58.44 27.5558 57.1766C27.5004 56.8537 27.5096 56.5219 27.6204 56.1901C28.072 54.7884 29.8704 54.4935 31.0875 53.6357C32.1296 52.8977 32.775 51.6807 33.771 50.8787C34.8868 50.0025 36.3254 49.6891 37.6901 49.3478C39.2208 48.9696 40.733 48.5175 42.2086 47.9921C43.3612 47.5774 44.5324 47.1163 45.4361 46.2955C46.0169 45.7606 46.4874 45.0964 47.1606 44.6723C48.2579 43.9901 49.6503 44.1099 50.932 43.9437C52.2047 43.778 53.6525 43.0405 53.7446 41.7676C53.8276 40.7716 53.016 39.9049 52.0939 39.5361C51.1902 39.1673 50.1665 39.1673 49.18 39.0845C48.2025 39.0106 47.1606 38.826 46.4228 38.1713C45.6022 37.4613 45.2794 36.3086 44.4678 35.5985C43.3612 34.612 41.7013 34.7223 40.2353 34.8885C38.1328 35.1285 36.0395 35.359 33.9554 35.5985C33.0148 35.7093 31.8529 35.7093 31.3826 34.8885C30.8569 33.9758 31.6316 32.8046 31.3734 31.7717C31.1521 30.9509 30.3038 30.4439 29.4829 30.1854C28.6716 29.918 27.7956 29.7892 27.0947 29.3002C27.6571 28.8486 28.2474 28.4335 28.8467 28.0557C32.0834 26.0268 35.9197 24.8462 40.0047 24.8462C40.5394 24.8462 41.1113 24.8647 41.6646 24.92C49.0602 25.4919 55.4137 29.918 58.6597 36.1978C60.1811 39.0935 61.0202 42.3854 61.0202 45.8713Z" fill="#70C1F9"/>
<path d="M64.0996 41.5629V50.1795C64.0996 50.8109 63.6004 51.3097 62.9693 51.3097H17.0308C16.3997 51.3097 15.9009 50.8109 15.9009 50.1795V41.5629C15.9009 40.9315 16.3997 40.4326 17.0308 40.4326H62.9693C63.6004 40.4326 64.0996 40.9315 64.0996 41.5629Z" fill="white"/>
<path d="M26.5942 40.4326H17.0308C16.3997 40.4326 15.9009 40.9315 15.9009 41.5629V50.1795C15.9009 50.8109 16.3997 51.3097 17.0308 51.3097H26.5942V40.4326Z" fill="#ED524E"/>
<path d="M19.5642 47.5538C18.4429 46.4325 18.4465 44.6046 19.5722 43.4789C20.6979 42.3532 22.5258 42.3497 23.6471 43.471C24.7728 44.5967 24.7728 46.4281 23.6471 47.5538C22.5214 48.6795 20.6899 48.6795 19.5642 47.5538ZM22.7398 44.3783C22.1187 43.7572 21.1048 43.7609 20.4795 44.3862C19.8542 45.0116 19.8504 46.0254 20.4715 46.6465C21.0971 47.2721 22.1145 47.2718 22.7398 46.6465C23.3651 46.0212 23.3653 45.0038 22.7398 44.3783Z" fill="#E9E9FF"/>
<path d="M18.0981 49.0172C17.8474 48.7664 17.8476 48.3604 18.0981 48.1098L19.563 46.645C19.8135 46.3945 20.2195 46.3943 20.4703 46.645C20.721 46.8958 20.7208 47.3018 20.4703 47.5523L19.0054 49.0172C18.7549 49.2677 18.3489 49.2679 18.0981 49.0172Z" fill="#E9E9FF"/>
<path d="M29.861 48.2375C29.7593 48.161 29.6894 48.0659 29.6513 47.9514L28.2963 43.9818C28.2773 43.9248 28.2676 43.8708 28.2676 43.8195C28.2676 43.6988 28.3087 43.5971 28.3918 43.5144C28.4741 43.4317 28.5762 43.3901 28.697 43.3901C28.7859 43.3901 28.867 43.4142 28.9404 43.462C29.0134 43.5097 29.0627 43.5715 29.0883 43.6479L30.2046 47.3216L31.3115 43.7337C31.3433 43.632 31.402 43.5493 31.4882 43.4856C31.574 43.4224 31.6706 43.3901 31.779 43.3901C31.8869 43.3901 31.984 43.4224 32.0701 43.4856C32.156 43.5493 32.2146 43.632 32.2464 43.7337L33.3533 47.3216L34.47 43.6479C34.4952 43.5715 34.5445 43.5097 34.6175 43.462C34.6909 43.4142 34.772 43.3901 34.8609 43.3901C34.9817 43.3901 35.0834 43.4317 35.1665 43.5144C35.2488 43.5971 35.2903 43.6988 35.2903 43.8195C35.2903 43.8708 35.2806 43.9248 35.2616 43.9818L33.907 47.9514C33.8685 48.0659 33.7987 48.161 33.6969 48.2375C33.5952 48.314 33.4807 48.352 33.3533 48.352C33.226 48.352 33.1114 48.314 33.0097 48.2375C32.908 48.161 32.835 48.0628 32.7904 47.9416L31.779 44.7832L30.7676 47.9416C30.7229 48.0628 30.6499 48.161 30.5482 48.2375C30.4465 48.314 30.3319 48.352 30.2046 48.352C30.0772 48.352 29.9627 48.314 29.861 48.2375Z" fill="#4F5D99"/>
<path d="M37.4181 48.2375C37.3164 48.161 37.2465 48.0659 37.2084 47.9514L35.8534 43.9818C35.8344 43.9248 35.8247 43.8708 35.8247 43.8195C35.8247 43.6988 35.8659 43.5971 35.9489 43.5144C36.0313 43.4317 36.1334 43.3901 36.2541 43.3901C36.343 43.3901 36.4242 43.4142 36.4976 43.462C36.5705 43.5097 36.6199 43.5715 36.6455 43.6479L37.7617 47.3216L38.8686 43.7337C38.9005 43.632 38.9591 43.5493 39.0453 43.4856C39.1311 43.4224 39.2278 43.3901 39.3361 43.3901C39.444 43.3901 39.5411 43.4224 39.6273 43.4856C39.7131 43.5493 39.7717 43.632 39.8035 43.7337L40.9105 47.3216L42.0271 43.6479C42.0523 43.5715 42.1016 43.5097 42.1746 43.462C42.248 43.4142 42.3291 43.3901 42.4181 43.3901C42.5388 43.3901 42.6405 43.4317 42.7236 43.5144C42.8059 43.5971 42.8475 43.6988 42.8475 43.8195C42.8475 43.8708 42.8378 43.9248 42.8187 43.9818L41.4641 47.9514C41.4257 48.0659 41.3558 48.161 41.2541 48.2375C41.1523 48.314 41.0378 48.352 40.9105 48.352C40.7831 48.352 40.6686 48.314 40.5669 48.2375C40.4651 48.161 40.3921 48.0628 40.3475 47.9416L39.3361 44.7832L38.3247 47.9416C38.28 48.0628 38.207 48.161 38.1053 48.2375C38.0036 48.314 37.8891 48.352 37.7617 48.352C37.6344 48.352 37.5198 48.314 37.4181 48.2375Z" fill="#4F5D99"/>
<path d="M44.9747 48.2375C44.873 48.161 44.8031 48.0659 44.7651 47.9514L43.4101 43.9818C43.3911 43.9248 43.3813 43.8708 43.3813 43.8195C43.3813 43.6988 43.4225 43.5971 43.5056 43.5144C43.5879 43.4317 43.69 43.3901 43.8108 43.3901C43.8997 43.3901 43.9808 43.4142 44.0542 43.462C44.1272 43.5097 44.1765 43.5715 44.2021 43.6479L45.3184 47.3216L46.4253 43.7337C46.4571 43.632 46.5157 43.5493 46.6019 43.4856C46.6877 43.4224 46.7844 43.3901 46.8927 43.3901C47.0007 43.3901 47.0977 43.4224 47.1839 43.4856C47.2697 43.5493 47.3283 43.632 47.3602 43.7337L48.4671 47.3216L49.5837 43.6479C49.609 43.5715 49.6583 43.5097 49.7313 43.462C49.8046 43.4142 49.8858 43.3901 49.9747 43.3901C50.0954 43.3901 50.1972 43.4317 50.2803 43.5144C50.3626 43.5971 50.4041 43.6988 50.4041 43.8195C50.4041 43.8708 50.3944 43.9248 50.3754 43.9818L49.0207 47.9514C48.9823 48.0659 48.9124 48.161 48.8107 48.2375C48.709 48.314 48.5944 48.352 48.4671 48.352C48.3397 48.352 48.2252 48.314 48.1235 48.2375C48.0218 48.161 47.9488 48.0628 47.9041 47.9416L46.8927 44.7832L45.8813 47.9416C45.8367 48.0628 45.7637 48.161 45.662 48.2375C45.5602 48.314 45.4457 48.352 45.3184 48.352C45.191 48.352 45.0765 48.314 44.9747 48.2375Z" fill="#4F5D99"/>
<path d="M21.6084 22.7797V23.9636C21.6084 24.1106 21.4859 24.2331 21.3393 24.2331H6.96153C6.81486 24.2331 6.69238 24.1106 6.69238 23.9636V22.7797C6.69238 22.6327 6.81486 22.5103 6.96153 22.5103H21.3393C21.4859 22.5103 21.6084 22.6327 21.6084 22.7797Z" fill="#70C1F9"/>
<path d="M16.1316 27.1723V28.3562C16.1316 28.5032 16.0092 28.6257 15.8625 28.6257H6.96153C6.81486 28.6257 6.69238 28.5032 6.69238 28.3562V27.1723C6.69238 27.0253 6.81486 26.9028 6.96153 26.9028H15.8625C16.0092 26.9028 16.1316 27.0253 16.1316 27.1723Z" fill="#ED524E"/>
<g opacity="0.2">
<path d="M10.6704 5.81592L33.6632 74.1913H56.8168L33.8098 5.81592H10.6704Z" fill="white"/>
<path d="M46.3402 5.81592H39.7617L62.7666 74.1913H69.3296L46.3402 5.81592Z" fill="white"/>
</g>
</svg>
